<svg width="598" height="428">
  <defs>
    <g id="g1">
      <rect x="0" y="0" width="301" height="299" 
        style="fill:#737373;stroke-width:0"/>
      <rect x="19" y="19" width="266" height="163" 
        style="fill:#000000;stroke-width:0"/>
      <rect x="140" y="168" width="26" height="43" 
        style="fill:#000000;stroke-width:0"/>
      <rect x="18" y="202" width="266" height="81" 
        style="fill:#c9c9c9;stroke-width:0"/>
      <rect x="29" y="214" width="15" height="11" 
        style="fill:#ffffff;stroke-width:0"/>
      <rect x="47" y="214" width="15" height="11" 
        style="fill:#ffffff;stroke-width:0"/>
      <rect x="66" y="214" width="15" height="11" 
        style="fill:#ffffff;stroke-width:0"/>
      <rect x="84" y="214" width="15" height="11" 
        style="fill:#ffffff;stroke-width:0"/>
      <rect x="102" y="214" width="15" height="11" 
        style="fill:#ffffff;stroke-width:0"/>
      <rect x="120" y="214" width="15" height="11" 
        style="fill:#ffffff;stroke-width:0"/>
      <rect x="138" y="214" width="15" height="11" 
        style="fill:#ffffff;stroke-width:0"/>
      <rect x="157" y="214" width="15" height="11" 
        style="fill:#ffffff;stroke-width:0"/>
      <rect x="175" y="214" width="15" height="11" 
        style="fill:#ffffff;stroke-width:0"/>
      <rect x="256" y="214" width="15" height="11" 
        style="fill:#ffffff;stroke-width:0"/>
      <rect x="238" y="214" width="15" height="11" 
        style="fill:#ffffff;stroke-width:0"/>
      <rect x="218" y="214" width="15" height="11" 
        style="fill:#ffffff;stroke-width:0"/>
      <rect x="255" y="229" width="15" height="11" 
        style="fill:#ffffff;stroke-width:0"/>
      <rect x="238" y="229" width="15" height="11" 
        style="fill:#ffffff;stroke-width:0"/>
      <rect x="218" y="229" width="15" height="11" 
        style="fill:#ffffff;stroke-width:0"/>
      <rect x="219" y="245" width="15" height="11" 
        style="fill:#ffffff;stroke-width:0"/>
      <rect x="238" y="245" width="15" height="11" 
        style="fill:#ffffff;stroke-width:0"/>
      <rect x="256" y="245" width="15" height="11" 
        style="fill:#ffffff;stroke-width:0"/>
      <rect x="219" y="260" width="15" height="11" 
        style="fill:#ffffff;stroke-width:0"/>
      <rect x="238" y="260" width="15" height="11" 
        style="fill:#ffffff;stroke-width:0"/>
      <rect x="255" y="260" width="15" height="11" 
        style="fill:#ffffff;stroke-width:0"/>
      <rect x="193" y="214" width="15" height="11" 
        style="fill:#ffffff;stroke-width:0"/>
      <rect x="29" y="229" width="18" height="11" 
        style="fill:#ffffff;stroke-width:0"/>
      <rect x="52" y="230" width="15" height="11" 
        style="fill:#ffffff;stroke-width:0"/>
      <rect x="71" y="229" width="15" height="11" 
        style="fill:#ffffff;stroke-width:0"/>
      <rect x="90" y="229" width="15" height="11" 
        style="fill:#ffffff;stroke-width:0"/>
      <rect x="110" y="229" width="15" height="11" 
        style="fill:#ffffff;stroke-width:0"/>
      <rect x="129" y="229" width="15" height="11" 
        style="fill:#ffffff;stroke-width:0"/>
      <rect x="147" y="229" width="15" height="11" 
        style="fill:#ffffff;stroke-width:0"/>
      <rect x="165" y="229" width="15" height="11" 
        style="fill:#ffffff;stroke-width:0"/>
      <rect x="63" y="244" width="15" height="11" 
        style="fill:#ffffff;stroke-width:0"/>
      <rect x="82" y="244" width="15" height="11" 
        style="fill:#ffffff;stroke-width:0"/>
      <rect x="101" y="244" width="15" height="11" 
        style="fill:#ffffff;stroke-width:0"/>
      <rect x="68" y="260" width="80" height="11" 
        style="fill:#ffffff;stroke-width:0"/>
      <rect x="48" y="260" width="15" height="11" 
        style="fill:#ffffff;stroke-width:0"/>
      <rect x="119" y="244" width="15" height="11" 
        style="fill:#ffffff;stroke-width:0"/>
      <rect x="137" y="244" width="15" height="11" 
        style="fill:#ffffff;stroke-width:0"/>
      <rect x="156" y="244" width="15" height="11" 
        style="fill:#ffffff;stroke-width:0"/>
      <rect x="153" y="260" width="15" height="11" 
        style="fill:#ffffff;stroke-width:0"/>
      <rect x="175" y="244" width="15" height="11" 
        style="fill:#ffffff;stroke-width:0"/>
      <rect x="172" y="259" width="15" height="11" 
        style="fill:#ffffff;stroke-width:0"/>
      <rect x="29" y="260" width="15" height="11" 
        style="fill:#ffffff;stroke-width:0"/>
      <rect x="193" y="259" width="15" height="11" 
        style="fill:#ffffff;stroke-width:0"/>
      <rect x="29" y="244" width="31" height="11" 
        style="fill:#ffffff;stroke-width:0"/>
      <rect x="183" y="228" width="25" height="13" 
        style="fill:#ffffff;stroke-width:0"/>
      <rect x="194" y="236" width="14" height="18" 
        style="fill:#ffffff;stroke-width:0"/>
      <rect x="30" y="31" width="246" height="140" 
        style="fill:#5a71cd;stroke-width:0"/>
      <rect x="63" y="68" width="153" height="75" 
        style="fill:#ffffff;stroke-width:0"/>
      <rect x="192" y="66" width="49" height="77" 
        style="fill:#c9c9c9;stroke-width:0"/>
      <rect x="63" y="55" width="178" height="15" 
        style="fill:#939393;stroke-width:0"/>
    </g>
  </defs>
  <use x="149" y="110" xlink:href="#g1" />
</svg>
