<svg width="598" height="428">
  <defs>
    <g id="g1">
      <polygon points="92,0 22,96 162,96" 
        style="fill:#752424;stroke:#000000;stroke-width:2"/>
      <polygon points="21,194 0,273 42,273" 
        style="fill:#6e6e6e;stroke:#000000;stroke-width:2"/>
      <polygon points="162,193 142,273 183,273" 
        style="fill:#6e6e6e;stroke:#000000;stroke-width:2"/>
      <polygon points="93,189 52,259 134,259" 
        style="fill:#1f1f1f;stroke:#000000;stroke-width:2"/>
      <rect x="22" y="97" width="141" height="142" 
        style="fill:#6e6e6e;stroke:#000000;stroke-width:2"/>
      <polygon points="93,192 73,273 114,273" 
        style="fill:#6e6e6e;stroke:#000000;stroke-width:2"/>
      <ellipse cx="93" cy="145" rx="41" ry="43" 
        style="fill:#6e6e6e;stroke:#000000;stroke-width:2"/>
      <ellipse cx="93" cy="145" rx="33" ry="34" 
        style="fill:#217dbb;stroke:#000000;stroke-width:2"/>
      <ellipse cx="37" cy="220" rx="7" ry="8" 
        style="fill:#6e6e6e;stroke:#000000;stroke-width:2"/>
      <ellipse cx="64" cy="221" rx="7" ry="7" 
        style="fill:#6e6e6e;stroke:#000000;stroke-width:2"/>
      <ellipse cx="122" cy="221" rx="6" ry="7" 
        style="fill:#6e6e6e;stroke:#000000;stroke-width:2"/>
      <ellipse cx="146" cy="220" rx="5" ry="6" 
        style="fill:#6e6e6e;stroke:#000000;stroke-width:2"/>
      <ellipse cx="93" cy="351" rx="28" ry="73" 
        style="fill:#ff0f0f;stroke-width:0"/>
      <ellipse cx="94" cy="337" rx="18" ry="51" 
        style="fill:#ff930f;stroke-width:0"/>
      <ellipse cx="94" cy="316" rx="9" ry="25" 
        style="fill:#ffef0f;stroke-width:0"/>
    </g>
  </defs>
  <use x="208" y="154" xlink:href="#g1" />
</svg>
