<svg width="598" height="428">
  <defs>
    <g id="g1">
      <ellipse cx="87" cy="139" rx="52" ry="25" 
        style="fill:#814a27;stroke-width:0"/>
      <rect x="44" y="150" width="9" height="65" 
        style="fill:#814a27;stroke-width:0"/>
      <rect x="57" y="150" width="9" height="65" 
        style="fill:#814a27;stroke-width:0"/>
      <rect x="107" y="150" width="9" height="65" 
        style="fill:#814a27;stroke-width:0"/>
      <rect x="121" y="150" width="9" height="65" 
        style="fill:#814a27;stroke-width:0"/>
      <rect x="40" y="85" width="24" height="47" 
        style="fill:#814a27;stroke-width:0"/>
      <ellipse cx="140" cy="126" rx="9" ry="10" 
        style="fill:#814a27;stroke-width:0"/>
      <rect x="51" y="43" width="7" height="30" 
        style="fill:#a7842a;stroke-width:0"/>
      <rect x="61" y="50" width="7" height="30" 
        style="fill:#a7842a;stroke-width:0"/>
      <rect x="41" y="26" width="7" height="30" 
        transform="rotate(297 44 41)" 
        style="fill:#a7842a;stroke-width:0"/>
      <rect x="71" y="30" width="7" height="30" 
        transform="rotate(55 74 45)" 
        style="fill:#a7842a;stroke-width:0"/>
      <rect x="29" y="6" width="7" height="30" 
        transform="rotate(352 32 21)" 
        style="fill:#a7842a;stroke-width:0"/>
      <rect x="83" y="10" width="7" height="30" 
        transform="rotate(7 86 25)" 
        style="fill:#a7842a;stroke-width:0"/>
      <rect x="38" y="116" width="27" height="7" 
        transform="rotate(349 51 119)" 
        style="fill:#000000;stroke-width:0"/>
      <ellipse cx="36" cy="125" rx="8" ry="8" 
        style="fill:#c3ab6f;stroke-width:0"/>
      <rect x="165" y="205" width="241" height="9" 
        style="fill:#8c8c8c;stroke-width:0"/>
      <rect x="185" y="185" width="9" height="23" 
        style="fill:#8c8c8c;stroke-width:0"/>
      <rect x="377" y="185" width="9" height="23" 
        style="fill:#8c8c8c;stroke-width:0"/>
      <rect x="156" y="191" width="9" height="23" 
        transform="rotate(317 160 202)" 
        style="fill:#8c8c8c;stroke-width:0"/>
      <rect x="69" y="114" width="9" height="52" 
        transform="rotate(355 73 140)" 
        style="fill:#000000;stroke-width:0"/>
      <rect x="73" y="143" width="111" height="9" 
        style="fill:#000000;stroke-width:0"/>
      <ellipse cx="345" cy="119" rx="46" ry="44" 
        style="fill:#ebe4d0;stroke-width:0"/>
      <ellipse cx="281" cy="131" rx="42" ry="44" 
        style="fill:#9d1010;stroke-width:0"/>
      <ellipse cx="282" cy="80" rx="23" ry="27" 
        style="fill:#ebe4d0;stroke-width:0"/>
      <rect x="266" y="66" width="33" height="21" 
        style="fill:#dbb9a9;stroke-width:0"/>
      <ellipse cx="282" cy="89" rx="7" ry="7" 
        style="fill:#9d1010;stroke-width:0"/>
      <ellipse cx="271" cy="81" rx="3" ry="3" 
        style="fill:#2a5689;stroke-width:0"/>
      <ellipse cx="294" cy="81" rx="3" ry="3" 
        style="fill:#2a5689;stroke-width:0"/>
      <rect x="271" y="47" width="32" height="14" 
        transform="rotate(13 287 54)" 
        style="fill:#9d1010;stroke-width:0"/>
      <rect x="273" y="41" width="36" height="13" 
        style="fill:#9d1010;stroke-width:0"/>
      <ellipse cx="314" cy="48" rx="9" ry="10" 
        style="fill:#ebe4d0;stroke-width:0"/>
      <rect x="264" y="89" width="10" height="45" 
        transform="rotate(333 269 111)" 
        style="fill:#e2d8bb;stroke-width:0"/>
      <rect x="283" y="89" width="10" height="63" 
        transform="rotate(33 288 120)" 
        style="fill:#ebe4d0;stroke-width:0"/>
      <rect x="184" y="143" width="202" height="43" 
        style="fill:#563a1a;stroke-width:0"/>
      <ellipse cx="222" cy="77" rx="12" ry="12" 
        style="fill:#ebe4d0;stroke-width:0"/>
      <rect x="215" y="83" width="26" height="34" 
        transform="rotate(347 228 100)" 
        style="fill:#9d1010;stroke-width:0"/>
      <rect x="225" y="90" width="26" height="34" 
        transform="rotate(272 238 107)" 
        style="fill:#9d1010;stroke-width:0"/>
      <ellipse cx="44" cy="86" rx="28" ry="15" 
        style="fill:#814a27;stroke-width:0"/>
      <ellipse cx="47" cy="81" rx="6" ry="6" 
        style="fill:#000000;stroke-width:0"/>
      <ellipse cx="14" cy="86" rx="7" ry="7" 
        style="fill:#9d1010;stroke-width:0"/>
      <ellipse cx="76" cy="78" rx="12" ry="6" 
        transform="rotate(340 76 78)" 
        style="fill:#814a27;stroke-width:0"/>
      <rect x="259" y="70" width="17" height="4" 
        transform="rotate(350 267 72)" 
        style="fill:#ebe4d0;stroke-width:"/>
      <rect x="287" y="71" width="17" height="4" 
        transform="rotate(18 295 73)" 
        style="fill:#ebe4d0;stroke-width:"/>
      <rect x="98" y="19" width="7" height="30" 
        transform="rotate(81 101 34)" 
        style="fill:#a7842a;stroke-width:0"/>
      <rect x="17" y="16" width="7" height="30" 
        transform="rotate(287 20 31)" 
        style="fill:#a7842a;stroke-width:0"/>
      <rect x="115" y="5" width="7" height="30" 
        transform="rotate(16 118 20)" 
        style="fill:#a7842a;stroke-width:0"/>
      <rect x="0" y="0" width="7" height="30" 
        transform="rotate(338 3 15)" 
        style="fill:#a7842a;stroke-width:0"/>
    </g>
  </defs>
  <use x="96" y="146" xlink:href="#g1" />
</svg>
